<svg xmlns="http://www.w3.org/2000/svg" width="256" height="256" viewBox="0 0 256 256">
<!-- SVG created with Arrow, by QuiverAI (https://quiver.ai) -->
  <path d="m214 22.88c-24.05-11.44-52.52-16.7-86.16-16.88h-0.12c-33.65 0.18-62.12 5.44-86.17 16.88-12.58 5.94-19.18 16.98-19.18 30.68v75.68c0 39.43 23.55 68.67 47.43 87.74 15.98 12.71 30.34 21.43 43.26 28.4 6.36 3.01 11.34 3.61 14.49 3.62h0.17c3.25-0.02 8.4-0.89 15.36-4.31 13.52-6.47 26.85-14.11 42.62-27.27 23.29-20.04 47.22-48.75 47.48-88.18v-75.68c0-12.33-6.86-25.15-19.18-30.68z" fill="#1F70E8"/>
  <path d="m198.8 98.66c-2.86-1.38-4.2-2.27-4.39-5.88-2.17-20.6-12.62-40.31-40.22-53.95-0.87-0.44-1.43-0.1-1.68 1.03l-6.09 28.86c-0.77 3.1-3.42 2.54-3.18 0l3.37-34.53c-0.19-2.41-2.62-4.06-5.67-4.68-5.5-1.3-10.34-1.69-13.82-1.69h-0.07c-3.48 0-8.32 0.39-13.82 1.69-3.05 0.62-4.69 2.27-4.69 4.68l2.85 34.53c0.24 2.54-2.41 3.1-2.98 0l-5.22-28.74c-0.14-0.99-0.82-1.36-1.77-0.91-26.68 11.04-38.12 31.75-40.67 53.9-0.24 2.44-1.01 3.74-3.44 4.93-5.99 2.83-8.53 6.53-7.76 11.15 0.29 1.5 1.19 3.2 2.29 4.46 0.96-9.2 27.9-19.63 75.3-19.85h0.1c41.5 0 72.71 9.75 75.41 19.5 1.44-1.95 2.3-4.2 2.21-6.44-0.19-3.61-2.12-6.11-6.06-8.06z" fill="#fff"/>
  <path d="m127.2 101.6h-0.14c-21.87 0-36.91 2.48-54.03 7.72v40.75c0 14.62 6.62 30.73 17.32 39.29-0.1-8.59-0.39-16.33 1.2-22.11 2.12-7.81 8.72-11.13 18.45-12.05l7.18-0.8c-0.86-1.29-1.1-3.37-0.43-5 0.77-1.51 3-1.56 3.72-0.43 2.38 2.87 4.65 4.1 7.35 4.1s4.93-1.23 7.15-4.1c1.1-1.65 4.38-0.76 4.28 1.38-0.09 1.37-0.76 2.92-1.72 4.05l10.45 0.92c10.12 0.92 16.87 5.3 17.59 16.34 0.29 5.17 0.1 11.01-0.14 17.37 10.65-9.06 17.6-24.46 17.6-38.96v-40.75c-14.57-5.42-32.92-7.72-55.83-7.72zm-13.04 13.62c-0.72 3.21-3.62 3.05-5.21 2.35-7.47-2.88-13.5-1.19-20.45 3.31-3.05 1.79-5.27-1.2-3.83-3.39 5.48-7.76 17.48-9.47 27.16-5.37 1.94 0.87 2.62 1.66 2.33 3.1zm-2.13 18.22c-0.77 2.7-3.77 1.74-4.77 0.23-2.34-2.98-4.94-3.34-6.78-3.18-2.53 0.24-4.37 1.38-5.62 3.3-1.59 2.66-5.01 2.1-4.34-1.12 1.25-5.1 5.83-7.98 10.53-7.78 5.59 0.2 9.48 2.86 10.98 8.55zm54.79-0.45c-0.67 2.7-3.67 2.62-5.12 0.57-2.28-2.99-4.82-3.67-6.9-3.59-2.95 0.12-5.12 1.59-6.82 3.59-1.93 2.41-5.55 1.41-4.98-1.29 1.65-5.69 6.82-7.98 11.66-7.58 5.99 0.4 10.33 3.06 12.16 8.3zm2.13-12.11c-6.95-4.5-12.98-6.19-20.45-3.31-1.59 0.7-4.49 0.86-5.21-1.55-0.77-2.65 0.09-3.7 2.74-4.83 8.63-3.21 20.22-1.31 25.48 5.9 1.94 2.66 0.34 5.36-2.56 3.79z" fill="#fff"/>
  <path d="m190.2 122.6v29.27c0 0.8 0.81 1 1.77 0.48 6.46-3.53 9.11-11.25 8.63-18.45-0.67-6.65-5.66-11.3-10.4-11.3z" fill="#fff"/>
  <path d="m63.91 122.8c-5.49 0.4-9.74 5.3-10.02 11.73-0.29 8.02 4.15 14.82 9.74 17.9 0.86 0.44 1-0.32 1-1.33v-27.22c0-0.8-0.09-1.16-0.72-1.08z" fill="#fff"/>
  <path d="m155.5 168.7c-0.57 0-0.95 0.48-1.14 1-5.74 10.7-14.56 15.2-26.89 15.2h-0.09c-11.25 0-20.35-4.7-25.99-15.48-0.48-0.92-2.12-1.8-2.7 1.5-1.83 10.19 0.1 22.73 9.26 29.07 5.9 2.74 10.19 0.24 12.08-2.88 0.81-1.55 0-3.2-1.89-4.21-1.93-1-1.64-3.7 0.8-3.18 5.89 1.38 11.53 1.18 17.03-0.48 1.49-0.52 2.5 1.66 0.96 2.86-2.13 1.65-2.99 3.02-1.59 5.57 1.93 2.99 6.97 3.35 10.96 1.24 9.83-5.5 12.98-17.8 10.76-28.5-0.19-1.11-0.67-1.71-1.56-1.71z" fill="#fff"/>
  <path d="m106 167.1c4.59 9.66 12.06 12.55 21.34 12.55h0.09c9.7 0 17.61-4.16 22.26-12.55-14.25 2.25-28.65 2.25-43.69 0z" fill="#fff"/>
</svg>