<?xml version="1.0" encoding="UTF-8"?>
<svg id="Layer_1" xmlns="http://www.w3.org/2000/svg" xmlns:xlink="http://www.w3.org/1999/xlink" version="1.1" viewBox="0 0 256 256">
  <!-- Generator: Adobe Illustrator 29.0.1, SVG Export Plug-In . SVG Version: 2.1.0 Build 192)  -->
  <defs>
    <style>
      .st0 {
        fill: url(#linear-gradient2);
      }

      .st1 {
        fill: url(#linear-gradient1);
      }

      .st2 {
        fill: url(#linear-gradient3);
      }

      .st3 {
        fill: url(#linear-gradient6);
      }

      .st4 {
        fill: url(#linear-gradient5);
      }

      .st5 {
        fill: url(#linear-gradient4);
      }

      .st6 {
        fill: url(#linear-gradient);
      }

      .st7 {
        fill: #fefffe;
      }

      .st8 {
        fill: #2563eb;
      }
    </style>
    <linearGradient id="linear-gradient" x1="86.6" y1="152.8" x2="115" y2="121.5" gradientTransform="translate(0 255) scale(1 -1)" gradientUnits="userSpaceOnUse">
      <stop offset="0" stop-color="#0f69e3"/>
      <stop offset="1" stop-color="#1a73e8"/>
    </linearGradient>
    <linearGradient id="linear-gradient1" x1="140.7" y1="152.8" x2="169" y2="121.5" gradientTransform="translate(0 255) scale(1 -1)" gradientUnits="userSpaceOnUse">
      <stop offset="0" stop-color="#0f69e3"/>
      <stop offset="1" stop-color="#1a73e8"/>
    </linearGradient>
    <linearGradient id="linear-gradient2" x1="95.1" y1="144.7" x2="107.7" y2="127.1" gradientTransform="translate(0 255) scale(1 -1)" gradientUnits="userSpaceOnUse">
      <stop offset="0" stop-color="#0f69e3"/>
      <stop offset="1" stop-color="#1a73e8"/>
    </linearGradient>
    <linearGradient id="linear-gradient3" x1="147.2" y1="144.4" x2="159.7" y2="126.8" gradientTransform="translate(0 255) scale(1 -1)" gradientUnits="userSpaceOnUse">
      <stop offset="0" stop-color="#0f69e3"/>
      <stop offset="1" stop-color="#1a73e8"/>
    </linearGradient>
    <linearGradient id="linear-gradient4" x1="94" y1="169.7" x2="98.8" y2="153.7" gradientTransform="translate(0 255) scale(1 -1)" gradientUnits="userSpaceOnUse">
      <stop offset="0" stop-color="#0f69e3"/>
      <stop offset="1" stop-color="#1a73e8"/>
    </linearGradient>
    <linearGradient id="linear-gradient5" x1="154.9" y1="169.7" x2="159.7" y2="153.7" gradientTransform="translate(0 255) scale(1 -1)" gradientUnits="userSpaceOnUse">
      <stop offset="0" stop-color="#0f69e3"/>
      <stop offset="1" stop-color="#1a73e8"/>
    </linearGradient>
    <linearGradient id="linear-gradient6" x1="109.4" y1="133.2" x2="149.7" y2="59.9" gradientTransform="translate(0 255) scale(1 -1)" gradientUnits="userSpaceOnUse">
      <stop offset="0" stop-color="#0f69e3"/>
      <stop offset="1" stop-color="#1a73e8"/>
    </linearGradient>
  </defs>
  <path class="st8" d="M233.9,112.1c-2.7-13.3-6.6-23.2-17.9-33.6-2.1-12.1-9.3-19.2-19.1-22.4l8-1.1c-8.9-7.8-17-11.1-31.7-11.1-2.2-10.2-4.1-15.5-15-23.3-6.3-4.6-15.3-6.9-22.4-8.2-.9-3.8-3.6-4.4-7.9-4.4h-.2c-4.3,0-6.4.7-8.7,4.8-9.8,1.7-18.9,5.2-26.7,12-6.7,6-7.8,11.1-10,19.1-12.2,0-20.1,2.3-32.2,11l8.7,1.4c-11,1.8-18.6,9.8-20,21.4-10.9,10.3-14.4,19.2-17.8,34.7,5.1-3.3,7.8-4.8,13.8-6-12.4,13.6-16.3,32.3-10.9,59.4,3.1-6.5,5-10.2,9.8-13.6-4.8,18.6,1.2,40.5,16.1,53.9.5-5.5,1.2-9.2,3.5-14.2,4.7,18,15.4,33.9,38.2,44.2-1.7-6.2-2-8.1-1.5-14.4,10.8,13.5,18.8,20.8,37.6,26.3,15.2-4.4,26.5-13,37.8-26.1.9,4.9.3,8.3-1.3,13.8,18.8-7.3,33.1-23.4,37.3-43.7,2.8,3.1,3.8,7.8,3.9,13.9,13.5-13.8,19.6-30.9,16.3-53.7,4.6,3.5,6.2,6.6,8.7,13.5,7.3-21.4,3.1-43.3-10.1-59.7,5.6,1,8.3,2.7,13.6,6h0Z"/>
  <path class="st7" d="M127.1,49c-16.8-.2-29.6,3.5-41.3,10.1,1.4-11.8,2.5-23,8.2-29.3,6.1-6.3,13.2-8.2,19.4-10.3-2.1,5.7-2.9,8.8-2.9,15.7h.9c4.3-12.9,7.5-18.1,14.8-18.2h2c7.9-.1,10.7,3.8,15.6,18.8h.9c.1-7-1-9.4-3-15.7,7.6,2.3,18.1,6.7,22.7,13.1,5.1,7,4.9,16,5.9,26.1h-1c-12.1-6.5-23.7-10.1-42.2-10.2Z"/>
  <path class="st7" d="M87.5,64.1c13.1-6.9,23.9-9.8,39.4-9.7,15.3,0,26.5,2.6,41.4,9.5-3.3,5.8-8.6,6.1-14.1,4.5-8.4-2.6-15.9-4.2-26.6-4.2s-17.4,1.6-27.4,4.6c-5.6,1.4-9.9,0-12.8-4.7Z"/>
  <path class="st7" d="M55.9,98.2c-8-3.8-10.4-12.4-9.5-18.1,1.5-10,9.3-17.1,18.7-16.6,6.2.4,10.2,3.1,12.3,6.6.9,1.4,0,2.7-2.1,4.1-2,1.4-2.3,1.4-4-.4-2.4-2.2-5.1-2.4-7.3-2.3-6.2.3-9.4,5.5-9.5,10,0,4.8,2.3,7.6,5.1,10,0,0-3.6,6.8-3.6,6.8Z"/>
  <path class="st7" d="M199.5,98.2c8-5.1,10.4-12.4,9.7-18.1-1.5-10-8.9-16.6-18.2-17-6.2-.3-11.1,3.6-14,7.6l6.6,4.8c2.8-3.3,5.2-4.1,8.7-4,6.2.3,8.8,5.5,8.9,10,.1,4.8-2.6,7.6-5.8,10.4l4,6.4h0Z"/>
  <path class="st7" d="M183,124c5.4-18.7-2.2-43.8-30.7-48.4-12.2-1.2-18,3.1-25.1,10.3-8.5-6.5-13.4-11.2-24.2-10.3-23.9,2.2-34.7,23.1-31.3,48.3-7.1,10.8-8.6,19.4-6.4,28.9,2.8,10.1,9.4,17.3,19.2,23.8,7.7,5.5,12.6,11.2,14.8,19.2,4.6,10.1,13.8,14.6,28.2,15.5,15.2-1.1,23.7-7.4,27.8-17.8,3.7-8.8,10.7-13.6,18.6-19,10.1-7.3,17.5-17.7,16.8-28.4-.6-8.4-3.4-14.4-7.6-22.2h0Z"/>
  <path class="st6" d="M100.8,102.5c-9.7,0-15.6,9.2-14.2,20.3l.7.6c.6-10.3,4.9-17.2,13.3-17.2s10.9,9.9,8.6,24.8l.9-.3c6.1-13.3,1.6-28.2-9.4-28.2Z"/>
  <path class="st1" d="M156.8,102.5c9.7,0,14.4,9.8,12.7,20.2l-.9.5c-.7-9.9-4.8-17.2-13.1-17-9.3.2-11.8,10.1-8.9,24.8l-.9.3c-6.4-12.9-1.9-28.9,11.1-28.9h0Z"/>
  <path class="st0" d="M102.5,127.1c5.8,0,7.2-5,6.6-11.4h-.9c-.4,2.2-1.6,2.7-3,2.7-2.2,0-3.5-1.3-3.5-3s1.2-2.6,2.7-3.1v-.6c-6.5-1.3-10.6,3.2-10.6,8.3s3.6,7.1,8.8,7.1Z"/>
  <path class="st2" d="M154.3,127.1c5.8,0,7.7-4.2,7.1-10h-1c-.5,1.4-1.4,1.6-2.7,1.6-2.2,0-3.5-1.6-3.5-3.3s.8-2.4,2.1-3.1v-.6c-6.5-.9-9.9,4.1-9.9,8.3s2.9,7.1,8,7.1h0Z"/>
  <path class="st5" d="M107.7,91.3c-.5-3.6-3.8-3.7-6.7-3.6-8.1.4-13.7,6.1-15,11l.7.5c5.2-3.7,9-5.1,16.9-4.8,3,0,4.3-1,4-3.2Z"/>
  <path class="st4" d="M147.2,91.3c.5-3.6,3.8-3.7,6.7-3.6,8.1.4,13.7,6.1,15,11l-.7.5c-5.2-3.7-9-5.1-16.9-4.8-3,0-4.3-1-4-3.2Z"/>
  <path class="st3" d="M138.3,135.6c-3.9.3-7.2,1.8-10.8,1.6-3.7-.1-6.4-1.8-11.1-1.7-5.6,0-8.1,1.6-8.1,5.2,0,5.6,8.9,10.6,15.8,13.5,3.5,1.7.6,10.6-9.4,13.9-11.9,3.4-20.7-3.7-21.7-15.4,2.2-1.1,3.8-1.4,3.6-2.9-.4-1.8-4.4-2.1-7.5-.7-3.4,1.6-4.6,5.2-4.4,8.1l.8.2c1.3-2,2.3-2.9,3.9-2.6.7,7.8,5.4,14.4,14.4,18.4,5.6,11.6,11.7,19.1,24.2,19.1s19.5-9.1,24-19.2c8.2-3.8,13.2-9.3,14.4-19.2,1.6.1,2.8,1.1,4.2,3.4l.9-.3c-.2-5.2-4.4-9.6-10.6-9-2.6.3-3.3,1.3-3.2,2.2.1,1.1,1.4,1,4.1,1.8-1.3,10.1-7.7,17.3-17.7,17.3s-14.9-6-14.4-12.1c.2-2.6,1.9-2.9,4.1-4.1,7.2-3.9,13.5-8.2,13.5-12.8,0-3.6-2.8-5.1-9.3-4.7Z"/>
  <path class="st7" d="M113.6,182.1c4,4.1,8.6,5.2,14,5.2s10.2-2.6,13.5-5.8c1.6-1.6-1.2-2.9-5.8-3.1-3.6-.2-5.4.6-7.6,1.8-2.5-1.3-3.9-1.7-6.6-1.6-4.1.2-9,1.8-7.7,3.6Z"/>
</svg>