<svg xmlns="http://www.w3.org/2000/svg" width="256" height="256" fill="none" viewBox="0 0 256 256">
<!-- SVG created with Arrow, by QuiverAI (https://quiver.ai) -->
  <path d="m233.9 112.1c-2.72-13.31-6.57-23.17-17.85-33.63-2.12-12.05-9.26-19.19-19.09-22.37l8-1.08c-8.87-7.8-16.98-11.09-31.66-11.09-2.22-10.25-4.14-15.5-15.01-23.31-6.31-4.65-15.29-6.87-22.43-8.2-0.88-3.75-3.6-4.41-7.93-4.41h-0.2c-4.33 0-6.45 0.66-8.67 4.82-9.83 1.73-18.91 5.19-26.72 12.01-6.71 6-7.79 11.06-10.01 19.09-12.16 0-20.06 2.32-32.22 10.99l8.67 1.43c-10.97 1.82-18.58 9.85-20.01 21.41-10.87 10.26-14.41 19.21-17.75 34.74 5.06-3.28 7.78-4.81 13.78-6.04-12.36 13.61-16.3 32.29-10.94 59.43 3.13-6.52 4.95-10.17 9.81-13.63-4.76 18.58 1.24 40.5 16.13 53.91 0.51-5.54 1.23-9.19 3.55-14.23 4.65 17.98 15.42 33.91 38.18 44.17-1.73-6.2-2.03-8.13-1.52-14.44 10.77 13.51 18.77 20.75 37.62 26.34 15.2-4.36 26.47-13.03 37.84-26.14 0.91 4.85 0.3 8.3-1.32 13.83 18.75-7.31 33.13-23.44 37.28-43.66 2.82 3.13 3.83 7.78 3.93 13.88 13.47-13.77 19.58-30.9 16.34-53.66 4.55 3.46 6.18 6.6 8.7 13.53 7.34-21.41 3.09-43.33-10.06-59.66 5.56 1.02 8.29 2.74 13.56 5.97z" fill="url(#paint0_linear_1_2)"/>
  <path d="m127.1 48.98c-16.83-0.21-29.59 3.45-41.35 10.08 1.42-11.85 2.54-23.02 8.19-29.34 6.1-6.31 13.24-8.24 19.45-10.27-2.12 5.69-2.93 8.76-2.93 15.68l0.91 0.1c4.35-13.04 7.48-18.19 14.82-18.29h2.02c7.91-0.1 10.73 3.83 15.59 18.8l0.91-0.1c0.1-6.92-1.01-9.35-3.03-15.58 7.6 2.33 18.07 6.73 22.73 13.05 5.15 7.02 4.85 15.97 5.86 26.12l-1.01 0.1c-12.06-6.62-23.73-10.15-42.16-10.35z" fill="#FEFFFE"/>
  <path d="m87.48 64.12c13.06-6.92 23.93-9.75 39.43-9.65 15.29 0 26.46 2.63 41.45 9.45-3.33 5.83-8.59 6.14-14.14 4.51-8.4-2.63-15.9-4.16-26.57-4.16-9.83 0-17.43 1.63-27.37 4.57-5.55 1.42-9.89 0.1-12.8-4.72z" fill="#FEFFFE"/>
  <path d="m55.91 98.18c-8-3.85-10.42-12.4-9.51-18.14 1.52-9.96 9.32-17.09 18.65-16.58 6.21 0.4 10.25 3.13 12.27 6.59 0.91 1.43 0 2.65-2.12 4.08-2.02 1.42-2.32 1.42-4.04-0.41-2.42-2.23-5.05-2.44-7.27-2.34-6.21 0.31-9.44 5.46-9.54 10.01-0.1 4.85 2.32 7.58 5.14 10.01l-3.58 6.78z" fill="#FEFFFE"/>
  <path d="m199.5 98.18c8-5.06 10.42-12.4 9.71-18.14-1.52-9.96-8.86-16.58-18.19-16.99-6.21-0.3-11.06 3.55-13.99 7.62l6.62 4.75c2.82-3.33 5.24-4.14 8.68-4.04 6.21 0.31 8.83 5.46 8.93 10.01 0.1 4.85-2.62 7.58-5.75 10.41l3.99 6.38z" fill="#FEFFFE"/>
  <path d="m183 124c5.45-18.69-2.25-43.82-30.73-48.38-12.16-1.22-18.01 3.13-25.05 10.26-8.5-6.52-13.36-11.17-24.23-10.26-23.86 2.23-34.73 23.14-31.3 48.28-7.14 10.76-8.56 19.42-6.44 28.88 2.82 10.05 9.43 17.28 19.16 23.8 7.71 5.54 12.56 11.18 14.78 19.21 4.55 10.05 13.78 14.6 28.16 15.52 15.19-1.12 23.7-7.44 27.84-17.8 3.74-8.76 10.68-13.61 18.59-18.96 10.13-7.33 17.53-17.69 16.82-28.35-0.61-8.35-3.44-14.37-7.6-22.2z" fill="#FEFFFE"/>
  <path d="m100.8 102.5c-9.73 0-15.58 9.16-14.16 20.32l0.71 0.61c0.61-10.26 4.95-17.18 13.35-17.18 8.1 0 10.93 9.95 8.61 24.81l0.91-0.31c6.1-13.33 1.55-28.25-9.42-28.25z" fill="url(#paint1_linear_1_2)"/>
  <path d="m156.8 102.5c9.73 0 14.38 9.76 12.66 20.22l-0.91 0.51c-0.71-9.95-4.75-17.18-13.06-16.98-9.33 0.2-11.75 10.05-8.93 24.81l-0.91 0.3c-6.41-12.93-1.86-28.86 11.15-28.86z" fill="url(#paint2_linear_1_2)"/>
  <path d="m102.5 127.1c5.75 0 7.17-4.96 6.56-11.38l-0.91 0.1c-0.4 2.13-1.62 2.63-3.04 2.63-2.22 0-3.53-1.32-3.53-3.04 0-1.63 1.21-2.64 2.73-3.05l-0.1-0.61c-6.41-1.32-10.46 3.25-10.46 8.3 0 4.85 3.64 7.05 8.75 7.05z" fill="url(#paint3_linear_1_2)"/>
  <path d="m154.3 127.1c5.75 0 7.67-4.16 7.07-9.97l-1.01-0.1c-0.51 1.53-1.42 1.73-2.73 1.73-2.22 0-3.54-1.63-3.54-3.35 0-1.43 0.81-2.44 2.13-3.05l-0.1-0.61c-6.41-0.91-9.84 4.06-9.84 8.3 0 4.85 2.92 7.05 8.02 7.05z" fill="url(#paint4_linear_1_2)"/>
  <path d="m107.7 91.29c-0.51-3.55-3.84-3.65-6.67-3.55-8.1 0.41-13.65 6.05-14.97 11l0.71 0.51c5.25-3.65 8.99-5.07 16.89-4.77 3.03 0.1 4.34-1.02 4.04-3.19z" fill="url(#paint5_linear_1_2)"/>
  <path d="m147.2 91.29c0.51-3.55 3.84-3.65 6.66-3.55 8.11 0.41 13.66 6.05 14.98 11l-0.71 0.51c-5.25-3.65-8.99-5.07-16.89-4.77-3.03 0.1-4.34-1.02-4.04-3.19z" fill="url(#paint6_linear_1_2)"/>
  <path d="m138.3 135.6c-3.94 0.3-7.17 1.83-10.81 1.63-3.74-0.1-6.36-1.83-11.12-1.73-5.55 0-8.07 1.63-8.07 5.18 0 5.64 8.93 10.59 15.76 13.52 3.54 1.73 0.61 10.59-9.42 13.94-11.86 3.35-20.69-3.68-21.7-15.45 2.22-1.12 3.84-1.42 3.64-2.95-0.4-1.83-4.44-2.13-7.47-0.71-3.44 1.63-4.55 5.17-4.45 8.1l0.81 0.21c1.32-2.03 2.33-2.94 3.95-2.63 0.71 7.83 5.36 14.35 14.39 18.4 5.55 11.56 11.66 19.08 24.23 19.08 11.26 0 19.47-9.15 24.02-19.18 8.2-3.75 13.16-9.29 14.38-19.24 1.62 0.1 2.83 1.12 4.25 3.45l0.91-0.31c-0.2-5.24-4.35-9.59-10.56-8.98-2.62 0.3-3.33 1.32-3.23 2.23 0.1 1.12 1.42 1.01 4.14 1.83-1.31 10.05-7.73 17.28-17.66 17.28-9.33 0-14.88-6.03-14.37-12.05 0.2-2.63 1.92-2.93 4.14-4.15 7.2-3.86 13.51-8.21 13.51-12.76 0.07-3.55-2.76-5.11-9.27-4.71z" fill="url(#paint7_linear_1_2)"/>
  <path d="m113.6 182.1c4.04 4.15 8.59 5.17 14.04 5.17 5.95 0 10.2-2.63 13.53-5.77 1.62-1.63-1.2-2.95-5.75-3.15-3.64-0.2-5.36 0.61-7.58 1.83-2.53-1.32-3.94-1.73-6.57-1.63-4.14 0.21-8.99 1.83-7.67 3.55z" fill="#FEFFFE"/>
  <defs>
    <linearGradient id="paint0_linear_1_2" x1="21" x2="234.5" y1="8" y2="248" gradientUnits="userSpaceOnUse">
      <stop stop-color="#0F69E3" offset="0"/>
      <stop stop-color="#1A73E8" offset="1"/>
    </linearGradient>
    <linearGradient id="paint1_linear_1_2" x1="86.28" x2="114.6" y1="102.5" y2="133.8" gradientUnits="userSpaceOnUse">
      <stop stop-color="#0F69E3" offset="0"/>
      <stop stop-color="#1A73E8" offset="1"/>
    </linearGradient>
    <linearGradient id="paint2_linear_1_2" x1="140.4" x2="168.7" y1="102.5" y2="133.8" gradientUnits="userSpaceOnUse">
      <stop stop-color="#0F69E3" offset="0"/>
      <stop stop-color="#1A73E8" offset="1"/>
    </linearGradient>
    <linearGradient id="paint3_linear_1_2" x1="93.73" x2="106.3" y1="111.3" y2="128.9" gradientUnits="userSpaceOnUse">
      <stop stop-color="#0F69E3" offset="0"/>
      <stop stop-color="#1A73E8" offset="1"/>
    </linearGradient>
    <linearGradient id="paint4_linear_1_2" x1="146.3" x2="158.8" y1="111.3" y2="128.9" gradientUnits="userSpaceOnUse">
      <stop stop-color="#0F69E3" offset="0"/>
      <stop stop-color="#1A73E8" offset="1"/>
    </linearGradient>
    <linearGradient id="paint5_linear_1_2" x1="86.1" x2="90.95" y1="87.69" y2="103.7" gradientUnits="userSpaceOnUse">
      <stop stop-color="#0F69E3" offset="0"/>
      <stop stop-color="#1A73E8" offset="1"/>
    </linearGradient>
    <linearGradient id="paint6_linear_1_2" x1="147.1" x2="151.9" y1="87.69" y2="103.7" gradientUnits="userSpaceOnUse">
      <stop stop-color="#0F69E3" offset="0"/>
      <stop stop-color="#1A73E8" offset="1"/>
    </linearGradient>
    <linearGradient id="paint7_linear_1_2" x1="84.61" x2="124.9" y1="135.4" y2="208.7" gradientUnits="userSpaceOnUse">
      <stop stop-color="#0F69E3" offset="0"/>
      <stop stop-color="#1A73E8" offset="1"/>
    </linearGradient>
  </defs>
</svg>